<svg xmlns="http://www.w3.org/2000/svg" viewBox="0 0 384 384" role="img" aria-label="Аква Дельфин 80 алмазов">
  <defs>
    <radialGradient id="bg" cx="50%" cy="30%" r="78%"><stop offset="0%" stop-color="#A7F3D0"/><stop offset="48%" stop-color="#0284C7"/><stop offset="100%" stop-color="#050716"/></radialGradient>
    <linearGradient id="pearl" x1="0" y1="0" x2="1" y2="1"><stop stop-color="#FFFFFF"/><stop offset=".5" stop-color="#BAE6FD"/><stop offset="1" stop-color="#FFE08A"/></linearGradient>
    <filter id="softGlow"><feGaussianBlur stdDeviation="8" result="b"/><feMerge><feMergeNode in="b"/><feMergeNode in="SourceGraphic"/></feMerge></filter>
  </defs>
  <rect width="384" height="384" rx="64" fill="url(#bg)"/>
  <path d="M50 276c62-28 114-28 176 0s108 28 158 0" fill="none" stroke="#FFFFFF" stroke-opacity=".18" stroke-width="16" stroke-linecap="round"/>
  <circle cx="192" cy="178" r="128" fill="none" stroke="#FFFFFF" stroke-opacity=".22" stroke-width="3"/>
  <circle cx="192" cy="178" r="92" fill="#020617" fill-opacity=".28"/>
  <path d="M82 230c52-64 132-80 214-48-34 8-66 26-92 54 48 10 78 32 98 70-54-22-110-28-166-10l-42 32 18-54z M264 158l46-48-12 72" fill="none" stroke="url(#pearl)" stroke-width="14" stroke-linecap="round" stroke-linejoin="round" filter="url(#softGlow)"/>
  <text x="192" y="326" text-anchor="middle" font-family="Arial, sans-serif" font-size="23" font-weight="800" fill="#FFFFFF">Аква Дельфин</text>
  <text x="192" y="354" text-anchor="middle" font-family="Arial, sans-serif" font-size="17" font-weight="700" fill="#FFE08A">80 алмазов · preview only</text>
</svg>