<svg xmlns="http://www.w3.org/2000/svg" viewBox="0 0 384 384" role="img" aria-label="Изумрудная Русалка 990 алмазов">
  <defs>
    <radialGradient id="bg" cx="50%" cy="30%" r="78%"><stop offset="0%" stop-color="#BBF7D0"/><stop offset="48%" stop-color="#047857"/><stop offset="100%" stop-color="#050716"/></radialGradient>
    <linearGradient id="pearl" x1="0" y1="0" x2="1" y2="1"><stop stop-color="#FFFFFF"/><stop offset=".5" stop-color="#BAE6FD"/><stop offset="1" stop-color="#FFE08A"/></linearGradient>
    <filter id="softGlow"><feGaussianBlur stdDeviation="8" result="b"/><feMerge><feMergeNode in="b"/><feMergeNode in="SourceGraphic"/></feMerge></filter>
  </defs>
  <rect width="384" height="384" rx="64" fill="url(#bg)"/>
  <path d="M50 276c62-28 114-28 176 0s108 28 158 0" fill="none" stroke="#FFFFFF" stroke-opacity=".18" stroke-width="16" stroke-linecap="round"/>
  <circle cx="192" cy="178" r="128" fill="none" stroke="#FFFFFF" stroke-opacity=".22" stroke-width="3"/>
  <circle cx="192" cy="178" r="92" fill="#020617" fill-opacity=".28"/>
  <path d="M198 82c28 30 28 72 0 104 42 18 64 54 60 100 M186 186c-42 30-54 72-38 126 M174 246l-70 44 M214 246l70 44 M160 118c20 12 44 12 64 0" fill="none" stroke="url(#pearl)" stroke-width="14" stroke-linecap="round" stroke-linejoin="round" filter="url(#softGlow)"/>
  <text x="192" y="326" text-anchor="middle" font-family="Arial, sans-serif" font-size="23" font-weight="800" fill="#FFFFFF">Изумрудная Русалка</text>
  <text x="192" y="354" text-anchor="middle" font-family="Arial, sans-serif" font-size="17" font-weight="700" fill="#FFE08A">990 алмазов · preview only</text>
</svg>