<svg xmlns="http://www.w3.org/2000/svg" viewBox="0 0 384 384" role="img" aria-label="Неоновый Жасмин 8 алмазов">
  <defs>
    <radialGradient id="bg" cx="50%" cy="32%" r="76%"><stop offset="0%" stop-color="#F9A8D4"/><stop offset="44%" stop-color="#22D3EE"/><stop offset="100%" stop-color="#080711"/></radialGradient>
    <linearGradient id="gold" x1="0" y1="0" x2="1" y2="1"><stop stop-color="#FFFFFF"/><stop offset=".55" stop-color="#FFE08A"/><stop offset="1" stop-color="#B28DFF"/></linearGradient>
    <filter id="softGlow"><feGaussianBlur stdDeviation="8" result="b"/><feMerge><feMergeNode in="b"/><feMergeNode in="SourceGraphic"/></feMerge></filter>
  </defs>
  <rect width="384" height="384" rx="64" fill="url(#bg)"/>
  <circle cx="192" cy="178" r="126" fill="none" stroke="#FFFFFF" stroke-opacity=".24" stroke-width="3"/>
  <circle cx="192" cy="178" r="94" fill="#080711" fill-opacity=".28"/>
  <path d="M192 190c-34-44-19-87 0-87s34 43 0 87z M192 190c44-34 87-19 87 0s-43 34-87 0z M192 190c34 44 19 87 0 87s-34-43 0-87z M192 190c-44 34-87 19-87 0s43-34 87 0z" fill="none" stroke="url(#gold)" stroke-width="15" stroke-linecap="round" stroke-linejoin="round" filter="url(#softGlow)"/>
  <text x="192" y="326" text-anchor="middle" font-family="Arial, sans-serif" font-size="23" font-weight="800" fill="#FFFFFF">Неоновый Жасмин</text>
  <text x="192" y="354" text-anchor="middle" font-family="Arial, sans-serif" font-size="17" font-weight="700" fill="#FFE08A">8 алмазов · preview only</text>
</svg>