<svg xmlns="http://www.w3.org/2000/svg" viewBox="0 0 1600 620">
  <defs>
    <radialGradient id="night" cx="50%" cy="78%" r="68%">
      <stop offset="0%" stop-color="#06162e"/>
      <stop offset="42%" stop-color="#081a36"/>
      <stop offset="74%" stop-color="#020815"/>
      <stop offset="100%" stop-color="#00030a"/>
    </radialGradient>
    <linearGradient id="rim" x1="0" y1="0" x2="1" y2="0">
      <stop offset="0%" stop-color="#153f7a" stop-opacity=".1"/>
      <stop offset="45%" stop-color="#70bdff" stop-opacity=".9"/>
      <stop offset="72%" stop-color="#e9fbff" stop-opacity="1"/>
      <stop offset="100%" stop-color="#65aaff" stop-opacity=".1"/>
    </linearGradient>
    <filter id="glow">
      <feGaussianBlur stdDeviation="3" result="b"/>
      <feMerge><feMergeNode in="b"/><feMergeNode in="SourceGraphic"/></feMerge>
    </filter>
    <filter id="soft">
      <feGaussianBlur stdDeviation="18"/>
    </filter>
  </defs>

  <rect width="1600" height="620" fill="#020714"/>
  <g opacity=".6">
    <circle cx="116" cy="70" r="1.2" fill="#8fbfff"/>
    <circle cx="360" cy="38" r="1" fill="#8fbfff"/>
    <circle cx="1270" cy="92" r="1.4" fill="#8fbfff"/>
    <circle cx="1410" cy="54" r="1" fill="#8fbfff"/>
    <circle cx="1015" cy="36" r="1" fill="#8fbfff"/>
  </g>

  <ellipse cx="800" cy="560" rx="980" ry="430" fill="url(#night)"/>
  <ellipse cx="800" cy="560" rx="982" ry="432" fill="none" stroke="url(#rim)" stroke-width="7" filter="url(#glow)"/>
  <path d="M0 392 C260 250 536 204 812 235 C1110 268 1370 195 1600 72 L1600 0 L0 0 Z" fill="#031126" opacity=".48"/>
  <path d="M70 445 C320 316 550 285 792 304 C1026 323 1298 270 1530 142" stroke="#9bd7ff" stroke-width="2" opacity=".38" fill="none"/>

  <g fill="#ffbd54" filter="url(#glow)" opacity=".9">
    <circle cx="284" cy="384" r="2.4"/><circle cx="322" cy="364" r="1.7"/><circle cx="348" cy="396" r="2.2"/>
    <circle cx="402" cy="344" r="1.6"/><circle cx="425" cy="381" r="2.6"/><circle cx="465" cy="358" r="1.6"/>
    <circle cx="503" cy="398" r="2.2"/><circle cx="548" cy="354" r="2.5"/><circle cx="575" cy="392" r="1.6"/>
    <circle cx="620" cy="370" r="2.1"/><circle cx="650" cy="405" r="1.6"/><circle cx="692" cy="372" r="2.6"/>
    <circle cx="742" cy="410" r="1.6"/><circle cx="778" cy="375" r="2.4"/><circle cx="817" cy="405" r="1.8"/>
    <circle cx="870" cy="365" r="2.1"/><circle cx="922" cy="398" r="2.8"/><circle cx="966" cy="374" r="1.7"/>
    <circle cx="1018" cy="408" r="2.2"/><circle cx="1072" cy="360" r="2.6"/><circle cx="1126" cy="392" r="1.7"/>
    <circle cx="1184" cy="356" r="2.4"/><circle cx="1240" cy="383" r="1.8"/><circle cx="1306" cy="340" r="2.8"/>
  </g>

  <g stroke="#ffb347" stroke-width="1" opacity=".34">
    <path d="M284 384 L322 364 L348 396 L425 381 L503 398 L575 392"/>
    <path d="M548 354 L620 370 L692 372 L778 375 L870 365 L966 374"/>
    <path d="M922 398 L1018 408 L1126 392 L1240 383 L1306 340"/>
  </g>

  <g filter="url(#soft)" opacity=".42">
    <circle cx="1360" cy="226" r="82" fill="#92d8ff"/>
    <circle cx="1374" cy="220" r="38" fill="#ffffff"/>
  </g>
</svg>