<svg xmlns="http://www.w3.org/2000/svg" width="720" height="720" viewBox="0 0 720 720" role="img" aria-label="mermaid-pearl-bloom 190B premium visual animation polish">
  <defs>
    <radialGradient id="bg" cx="50%" cy="45%" r="60%"><stop offset="0%" stop-color="#8EEBFF" stop-opacity="0.70"/><stop offset="48%" stop-color="#F8FFFF" stop-opacity="0.26"/><stop offset="100%" stop-color="#08060D"/></radialGradient>
    <filter id="glow"><feGaussianBlur stdDeviation="12" result="blur"/><feMerge><feMergeNode in="blur"/><feMergeNode in="SourceGraphic"/></feMerge></filter>
  </defs>
  <rect width="720" height="720" rx="96" fill="url(#bg)"/>
  <circle cx="360" cy="360" r="216" fill="none" stroke="#8EEBFF" stroke-width="10" opacity="0.35" filter="url(#glow)"/>
  <circle cx="360" cy="360" r="136" fill="#F8FFFF" opacity="0.20" filter="url(#glow)"/>
  <path d="M96 476 C210 394 264 220 380 284 C478 338 492 168 624 242" fill="none" stroke="#8EEBFF" stroke-width="18" stroke-linecap="round" opacity="0.64" filter="url(#glow)"/>
  <path d="M132 268 C248 340 290 520 420 438 C520 376 552 526 636 452" fill="none" stroke="#F8FFFF" stroke-width="12" stroke-linecap="round" opacity="0.52"/>
  <g fill="#FFFFFF" opacity="0.88">
    <circle cx="190" cy="180" r="8"/><circle cx="526" cy="178" r="6"/><circle cx="592" cy="328" r="9"/><circle cx="208" cy="548" r="7"/><circle cx="474" cy="582" r="8"/>
  </g>
  <text x="360" y="344" text-anchor="middle" font-family="Arial, sans-serif" font-size="54" font-weight="900" fill="#FFFFFF">190B</text>
  <text x="360" y="398" text-anchor="middle" font-family="Arial, sans-serif" font-size="24" font-weight="800" fill="#FFECC0">mermaid-pearl-bloom</text>
  <text x="360" y="436" text-anchor="middle" font-family="Arial, sans-serif" font-size="18" font-weight="700" fill="#FFFFFF" opacity="0.84">entrance · loop · finale</text>
</svg>
