<svg xmlns="http://www.w3.org/2000/svg" viewBox="0 0 384 384" role="img" aria-label="Янтарный Феникс 150 алмазов">
  <defs>
    <radialGradient id="bg" cx="50%" cy="34%" r="72%"><stop offset="0%" stop-color="#FFB347"/><stop offset="42%" stop-color="#FF6B35"/><stop offset="100%" stop-color="#09070D"/></radialGradient>
    <linearGradient id="stroke" x1="0" y1="0" x2="1" y2="1"><stop stop-color="#FFFFFF"/><stop offset="1" stop-color="#F2C75B"/></linearGradient>
    <filter id="glow"><feGaussianBlur stdDeviation="7" result="b"/><feMerge><feMergeNode in="b"/><feMergeNode in="SourceGraphic"/></feMerge></filter>
  </defs>
  <rect width="384" height="384" rx="64" fill="url(#bg)"/>
  <circle cx="192" cy="176" r="122" fill="none" stroke="#FFFFFF" stroke-opacity=".30" stroke-width="3"/>
  <circle cx="192" cy="176" r="94" fill="#09070D" fill-opacity=".24"/>
  <path d="M80 245c45-7 68-31 70-71-28 18-60 19-96 4 47-18 73-48 79-89 21 35 51 49 98 38-19 30-47 47-84 51 33 17 67 17 103 0-21 42-54 65-99 70l-31 45z" fill="none" stroke="url(#stroke)" stroke-width="16" stroke-linecap="round" stroke-linejoin="round" filter="url(#glow)"/>
  <text x="192" y="326" text-anchor="middle" font-family="Arial, sans-serif" font-size="24" font-weight="800" fill="#FFFFFF">Янтарный Феникс</text>
  <text x="192" y="354" text-anchor="middle" font-family="Arial, sans-serif" font-size="17" font-weight="700" fill="#FFE08A">150 алмазов · preview only</text>
</svg>