<svg xmlns="http://www.w3.org/2000/svg" viewBox="0 0 384 384" role="img" aria-label="Имперская Лилия 888 алмазов">
  <defs>
    <radialGradient id="bg" cx="50%" cy="32%" r="78%"><stop offset="0%" stop-color="#FBCFE8"/><stop offset="44%" stop-color="#A855F7"/><stop offset="100%" stop-color="#070712"/></radialGradient>
    <linearGradient id="gold" x1="0" y1="0" x2="1" y2="1"><stop stop-color="#FFFFFF"/><stop offset=".52" stop-color="#FFE08A"/><stop offset="1" stop-color="#93C5FD"/></linearGradient>
    <filter id="softGlow"><feGaussianBlur stdDeviation="8" result="b"/><feMerge><feMergeNode in="b"/><feMergeNode in="SourceGraphic"/></feMerge></filter>
  </defs>
  <rect width="384" height="384" rx="64" fill="url(#bg)"/>
  <circle cx="192" cy="176" r="128" fill="none" stroke="#FFFFFF" stroke-opacity=".24" stroke-width="3"/>
  <circle cx="192" cy="176" r="96" fill="#070712" fill-opacity=".30"/>
  <path d="M192 286c-46-64-42-126 0-170 42 44 46 106 0 170z M192 286c-78-20-112-72-92-126 58 4 95 45 92 126z M192 286c78-20 112-72 92-126-58 4-95 45-92 126z M192 188v128" fill="none" stroke="url(#gold)" stroke-width="15" stroke-linecap="round" stroke-linejoin="round" filter="url(#softGlow)"/>
  <text x="192" y="326" text-anchor="middle" font-family="Arial, sans-serif" font-size="23" font-weight="800" fill="#FFFFFF">Имперская Лилия</text>
  <text x="192" y="354" text-anchor="middle" font-family="Arial, sans-serif" font-size="17" font-weight="700" fill="#FFE08A">888 алмазов · preview only</text>
</svg>